<svg width="20" height="19" viewBox="0 0 20 19" fill="none" xmlns="http://www.w3.org/2000/svg">
<path d="M18.75 8.00352H3.925L8.4625 2.55352C8.67467 2.29825 8.77675 1.96915 8.74628 1.63861C8.7158 1.30808 8.55527 1.00319 8.3 0.791018C8.04473 0.578845 7.71563 0.476768 7.3851 0.507243C7.05456 0.537717 6.74967 0.698248 6.5375 0.953519L0.2875 8.45352C0.245451 8.51317 0.207849 8.57584 0.175 8.64102C0.175 8.70352 0.175 8.74102 0.0875002 8.80352C0.0308421 8.94684 0.0011764 9.09941 0 9.25352C0.0011764 9.40763 0.0308421 9.56019 0.0875002 9.70352C0.0875002 9.76602 0.0874998 9.80352 0.175 9.86602C0.207849 9.93119 0.245451 9.99386 0.2875 10.0535L6.5375 17.5535C6.65503 17.6946 6.8022 17.8081 6.96856 17.8859C7.13491 17.9636 7.31636 18.0038 7.5 18.0035C7.79207 18.0041 8.07511 17.9024 8.3 17.716C8.42657 17.6111 8.5312 17.4822 8.60789 17.3368C8.68458 17.1913 8.73183 17.0322 8.74692 16.8685C8.76202 16.7048 8.74466 16.5397 8.69586 16.3827C8.64705 16.2257 8.56775 16.0798 8.4625 15.9535L3.925 10.5035H18.75C19.0815 10.5035 19.3995 10.3718 19.6339 10.1374C19.8683 9.90298 20 9.58504 20 9.25352C20 8.922 19.8683 8.60406 19.6339 8.36964C19.3995 8.13521 19.0815 8.00352 18.75 8.00352Z" fill="#F53838"/>
</svg>
