<svg width="20" height="19" viewBox="0 0 20 19" fill="none" xmlns="http://www.w3.org/2000/svg">
<path d="M1.25 8.00352H16.075L11.5375 2.55352C11.3253 2.29825 11.2232 1.96915 11.2537 1.63861C11.2842 1.30808 11.4447 1.00319 11.7 0.791018C11.9553 0.578845 12.2844 0.476768 12.6149 0.507243C12.9454 0.537717 13.2503 0.698248 13.4625 0.953519L19.7125 8.45352C19.7545 8.51317 19.7922 8.57584 19.825 8.64102C19.825 8.70352 19.825 8.74102 19.9125 8.80352C19.9692 8.94684 19.9988 9.09941 20 9.25352C19.9988 9.40763 19.9692 9.56019 19.9125 9.70352C19.9125 9.76602 19.9125 9.80352 19.825 9.86602C19.7922 9.93119 19.7545 9.99386 19.7125 10.0535L13.4625 17.5535C13.345 17.6946 13.1978 17.8081 13.0314 17.8859C12.8651 17.9636 12.6836 18.0038 12.5 18.0035C12.2079 18.0041 11.9249 17.9024 11.7 17.716C11.5734 17.6111 11.4688 17.4822 11.3921 17.3368C11.3154 17.1913 11.2682 17.0322 11.2531 16.8685C11.238 16.7048 11.2553 16.5397 11.3041 16.3827C11.3529 16.2257 11.4322 16.0798 11.5375 15.9535L16.075 10.5035H1.25C0.91848 10.5035 0.600536 10.3718 0.366116 10.1374C0.131695 9.90298 0 9.58504 0 9.25352C0 8.922 0.131695 8.60406 0.366116 8.36964C0.600536 8.13521 0.91848 8.00352 1.25 8.00352Z" fill="white"/>
</svg>
