<svg width="14" height="10" viewBox="0 0 14 10" fill="none" xmlns="http://www.w3.org/2000/svg">
<path d="M5.44619 9.27823C5.31493 9.2785 5.1849 9.25284 5.06357 9.20273C4.94225 9.15263 4.83201 9.07905 4.73919 8.98623L0.497193 4.74323C0.40162 4.65105 0.325361 4.54076 0.272868 4.4188C0.220374 4.29683 0.192697 4.16563 0.19145 4.03285C0.190204 3.90008 0.215413 3.76838 0.265607 3.64545C0.315801 3.52252 0.389974 3.41082 0.4838 3.31686C0.577625 3.2229 0.689223 3.14857 0.812083 3.0982C0.934942 3.04783 1.0666 3.02244 1.19938 3.0235C1.33216 3.02456 1.4634 3.05205 1.58544 3.10437C1.70748 3.15669 1.81788 3.23279 1.91019 3.32823L5.44519 6.86323L11.8102 0.500234C11.9977 0.312594 12.2521 0.207125 12.5173 0.207031C12.7826 0.206938 13.0371 0.312226 13.2247 0.499734C13.4123 0.687242 13.5178 0.94161 13.5179 1.20688C13.518 1.47215 13.4127 1.72659 13.2252 1.91423L6.15319 8.98623C6.06037 9.07905 5.95014 9.15263 5.82881 9.20273C5.70749 9.25284 5.57746 9.2785 5.44619 9.27823Z" fill="#2FAB73"/>
</svg>
